<svg xmlns="http://www.w3.org/2000/svg" viewBox="0 0 24 24" width="24" height="24">
  <path fill="#fff" fill-rule="evenodd" d="
    M7.699999999999999,4.3 H16.3 A3.4,3.4 0 0 1 19.7,7.699999999999999 V16.3 A3.4,3.4 0 0 1 16.3,19.7 H7.699999999999999 A3.4,3.4 0 0 1 4.3,16.3 V7.699999999999999 A3.4,3.4 0 0 1 7.699999999999999,4.3 Z
    M10.600,7.850 Q10.600,7.300 11.150,7.300 L12.850,7.300 Q13.400,7.300 13.400,7.850 L13.400,10.050 Q13.400,10.600 13.950,10.600 L16.150,10.600 Q16.700,10.600 16.700,11.150 L16.700,12.850 Q16.700,13.400 16.150,13.400 L13.950,13.400 Q13.400,13.400 13.400,13.950 L13.400,16.150 Q13.400,16.700 12.850,16.700 L11.150,16.700 Q10.600,16.700 10.600,16.150 L10.600,13.950 Q10.600,13.400 10.050,13.400 L7.850,13.400 Q7.300,13.400 7.300,12.850 L7.300,11.150 Q7.300,10.600 7.850,10.600 L10.050,10.600 Q10.600,10.600 10.600,10.050 L10.600,7.850 Z"/></svg>