<svg xmlns="http://www.w3.org/2000/svg" viewBox="0 0 24 24" width="24" height="24">
  <defs><mask id="libcut" maskUnits="userSpaceOnUse" x="0" y="0" width="24" height="24">
    <rect x="0" y="0" width="24" height="24" fill="#fff"/>
    <path fill="#000" d="M5.949999999999999,6.6499999999999995 H15.049999999999999 A2.6,2.6 0 0 1 17.65,9.25 V17.75 A2.6,2.6 0 0 1 15.049999999999999,20.35 H5.949999999999999 A2.6,2.6 0 0 1 3.3499999999999996,17.75 V9.25 A2.6,2.6 0 0 1 5.949999999999999,6.6499999999999995 Z"/>
  </mask></defs>
  <path fill="#fff" mask="url(#libcut)" d="M9.9,4.6 H17.099999999999998 A2.6,2.6 0 0 1 19.7,7.199999999999999 V13.799999999999999 A2.6,2.6 0 0 1 17.099999999999998,16.4 H9.9 A2.6,2.6 0 0 1 7.3,13.799999999999999 V7.199999999999999 A2.6,2.6 0 0 1 9.9,4.6 Z"/>
  <path fill="#fff" fill-rule="evenodd" d="
    M6.9,7.6 H14.1 A2.6,2.6 0 0 1 16.7,10.2 V16.799999999999997 A2.6,2.6 0 0 1 14.1,19.4 H6.9 A2.6,2.6 0 0 1 4.3,16.799999999999997 V10.2 A2.6,2.6 0 0 1 6.9,7.6 Z
    M9.518,11.229 Q8.900,10.900 8.900,11.600 L8.900,15.200 Q8.900,15.900 9.518,15.571 L12.982,13.729 Q13.600,13.400 12.982,13.071 L9.518,11.229 Z"/></svg>