<svg xmlns="http://www.w3.org/2000/svg" viewBox="0 0 24 24" width="24" height="24">
  <path fill="#fff" d="M8.7,2.7 H8.7 A1,1 0 0 1 9.7,3.7 V5.7 A1,1 0 0 1 8.7,6.7 H8.7 A1,1 0 0 1 7.7,5.7 V3.7 A1,1 0 0 1 8.7,2.7 Z"/>
  <path fill="#fff" d="M15.3,2.7 H15.3 A1,1 0 0 1 16.3,3.7 V5.7 A1,1 0 0 1 15.3,6.7 H15.3 A1,1 0 0 1 14.3,5.7 V3.7 A1,1 0 0 1 15.3,2.7 Z"/>
  <path fill="#fff" fill-rule="evenodd" d="
    M7.0,5.4 H17.000000000000004 A3.4,3.4 0 0 1 20.400000000000002,8.8 V17.6 A3.4,3.4 0 0 1 17.000000000000004,21.0 H7.0 A3.4,3.4 0 0 1 3.6,17.6 V8.8 A3.4,3.4 0 0 1 7.0,5.4 Z
    M6.9,8.8 H17.1 A0.7,0.7 0 0 1 17.8,9.5 V9.500000000000002 A0.7,0.7 0 0 1 17.1,10.200000000000001 H6.9 A0.7,0.7 0 0 1 6.2,9.500000000000002 V9.5 A0.7,0.7 0 0 1 6.9,8.8 Z
    M6.45,11.4 H7.95 A0.95,0.95 0 0 1 8.9,12.35 V13.450000000000001 A0.95,0.95 0 0 1 7.95,14.4 H6.45 A0.95,0.95 0 0 1 5.5,13.450000000000001 V12.35 A0.95,0.95 0 0 1 6.45,11.4 Z M11.45,11.4 H12.950000000000001 A0.95,0.95 0 0 1 13.9,12.35 V13.450000000000001 A0.95,0.95 0 0 1 12.950000000000001,14.4 H11.45 A0.95,0.95 0 0 1 10.5,13.450000000000001 V12.35 A0.95,0.95 0 0 1 11.45,11.4 Z M16.45,11.4 H17.95 A0.95,0.95 0 0 1 18.9,12.35 V13.450000000000001 A0.95,0.95 0 0 1 17.95,14.4 H16.45 A0.95,0.95 0 0 1 15.5,13.450000000000001 V12.35 A0.95,0.95 0 0 1 16.45,11.4 Z M6.45,15.4 H7.95 A0.95,0.95 0 0 1 8.9,16.35 V17.45 A0.95,0.95 0 0 1 7.95,18.4 H6.45 A0.95,0.95 0 0 1 5.5,17.45 V16.35 A0.95,0.95 0 0 1 6.45,15.4 Z M11.45,15.4 H12.950000000000001 A0.95,0.95 0 0 1 13.9,16.35 V17.45 A0.95,0.95 0 0 1 12.950000000000001,18.4 H11.45 A0.95,0.95 0 0 1 10.5,17.45 V16.35 A0.95,0.95 0 0 1 11.45,15.4 Z M16.45,15.4 H17.95 A0.95,0.95 0 0 1 18.9,16.35 V17.45 A0.95,0.95 0 0 1 17.95,18.4 H16.45 A0.95,0.95 0 0 1 15.5,17.45 V16.35 A0.95,0.95 0 0 1 16.45,15.4 Z"/></svg>