<svg xmlns="http://www.w3.org/2000/svg" viewBox="0 0 24 24" width="24" height="24">
  <path fill="#fff" d="M8.549999999999999,17.4 H15.45 A0.95,0.95 0 0 1 16.4,18.349999999999998 V18.349999999999998 A0.95,0.95 0 0 1 15.45,19.299999999999997 H8.549999999999999 A0.95,0.95 0 0 1 7.6,18.349999999999998 V18.349999999999998 A0.95,0.95 0 0 1 8.549999999999999,17.4 Z"/>
  <path fill="#fff" d="M10.554,15.978 Q10.700,15.500 11.200,15.500 L12.800,15.500 Q13.300,15.500 13.446,15.978 L13.854,17.322 Q14.000,17.800 13.500,17.800 L10.500,17.800 Q10.000,17.800 10.146,17.322 L10.554,15.978 Z"/>
  <path fill="#fff" d="M6.4,4.6 H17.6 A2.9,2.9 0 0 1 20.5,7.5 V13.1 A2.9,2.9 0 0 1 17.6,16.0 H6.4 A2.9,2.9 0 0 1 3.5,13.1 V7.5 A2.9,2.9 0 0 1 6.4,4.6 Z"/></svg>